<svg height="2222" width="720" xmlns="http://www.w3.org/2000/svg">
<rect height="2222" fill="#555" width="720"></rect>
<text fill="#7f7" font-family="Courier New" font-size="12" xml:space="preserve">
<tspan x="10" y="26"></tspan>
<tspan x="10" y="42">&gt; npmdoc-plop@0.0.1 test /home/travis/build/npmdoc/node-npmdoc-plop</tspan>
<tspan x="10" y="58">&gt; (set -e; export PORT=$(utility2 shServerPortRandom); utility2 test test.js)</tspan>
<tspan x="10" y="74"></tspan>
<tspan x="10" y="90"></tspan>
<tspan x="10" y="106">[MODE_BUILD=npmTest] - 2017-04-04T10:25:09Z - npm-testing /home/travis/build/npmdoc/node-npmdoc-\</tspan>
<tspan x="10" y="122">plop</tspan>
<tspan x="10" y="138"></tspan>
<tspan x="10" y="154"></tspan>
<tspan x="10" y="170">covering $ /home/travis/.nvm/versions/node/v6.10.1/bin/node /home/travis/build/npmdoc/node-npmdo\</tspan>
<tspan x="10" y="186">c-plop/test.js</tspan>
<tspan x="10" y="202">merging file:///home/travis/build/npmdoc/node-npmdoc-plop/tmp/build/test-report.json to test-rep\</tspan>
<tspan x="10" y="218">ort</tspan>
<tspan x="10" y="234">&gt; server listening on http-port 56480</tspan>
<tspan x="10" y="250">Expression assignment to _ now disabled.</tspan>
<tspan x="10" y="266">created apidoc file:///home/travis/build/npmdoc/node-npmdoc-plop/tmp/build/apidoc.html</tspan>
<tspan x="10" y="282"></tspan>
<tspan x="10" y="298"></tspan>
<tspan x="10" y="314">browserTest - created electron entry-page /home/travis/build/npmdoc/node-npmdoc-plop/tmp/electro\</tspan>
<tspan x="10" y="330">n.15b387f2dea0.c16f1b51ebe87.html</tspan>
<tspan x="10" y="346"></tspan>
<tspan x="10" y="362">[node test-case 1 of 6 passed] - testCase_buildLib_default</tspan>
<tspan x="10" y="378">[node test-case 2 of 6 passed] - testCase_buildReadme_default</tspan>
<tspan x="10" y="394">[node test-case 3 of 6 passed] - testCase_buildTest_default</tspan>
<tspan x="10" y="410"></tspan>
<tspan x="10" y="426">browserTest - created electron entry-page /home/travis/build/npmdoc/node-npmdoc-plop/tmp/electro\</tspan>
<tspan x="10" y="442">n.15b387f2e230.608c5c288607a.html</tspan>
<tspan x="10" y="458"></tspan>
<tspan x="10" y="474">[PLOP] No plopfile found</tspan>
<tspan x="10" y="490"></tspan>
<tspan x="10" y="506">USAGE:</tspan>
<tspan x="10" y="522">  $ plop		Select from a list of available generators</tspan>
<tspan x="10" y="538">  $ plop &lt;name&gt;		Run a generator registered under that name</tspan>
<tspan x="10" y="554"></tspan>
<tspan x="10" y="570">OPTIONS:</tspan>
<tspan x="10" y="586">  -h, --help		Show this help display</tspan>
<tspan x="10" y="602">  -i, --init		Generate a basic plopfile.js</tspan>
<tspan x="10" y="618">  -v, --version		Print current version</tspan>
<tspan x="10" y="634"></tspan>
<tspan x="10" y="650">[?25l? [PLOP] Please choose a generator. (Use arrow keys)</tspan>
<tspan x="10" y="666">issing on display ":99.0".</tspan>
<tspan x="10" y="682">Xlib:  extension "RANDR" missing on display ":99.0".</tspan>
<tspan x="10" y="698">&gt; server listening on http-port 34103</tspan>
<tspan x="10" y="714">merging file:///home/travis/build/npmdoc/node-npmdoc-plop/tmp/build/test-report.json to test-rep\</tspan>
<tspan x="10" y="730">ort</tspan>
<tspan x="10" y="746">Xlib:  extension "RANDR" missing on display ":99.0".</tspan>
<tspan x="10" y="762">[5963:0404/102511:WARNING:audio_manager.cc(314)] Multiple instances of AudioManager detected</tspan>
<tspan x="10" y="778">[5963:0404/102511:WARNING:audio_manager.cc(275)] Multiple instances of AudioManager detected</tspan>
<tspan x="10" y="794">[6012:0404/102511:ERROR:sandbox_linux.cc(343)] InitializeSandbox() called with multiple threads \</tspan>
<tspan x="10" y="810">in process gpu-process. </tspan>
<tspan x="10" y="826">merging file:///home/travis/build/npmdoc/node-npmdoc-plop/tmp/build/test-report.json to test-rep\</tspan>
<tspan x="10" y="842">ort</tspan>
<tspan x="10" y="858">[5963:0404/102511:ERROR:browser_gpu_channel_host_factory.cc(131)] Failed to create channel.</tspan>
<tspan x="10" y="874">Xlib:  extension "RANDR" missing on display ":99.0".</tspan>
<tspan x="10" y="890">[5967:0404/102511:WARNING:audio_manager.cc(314)] Multiple instances of AudioManager detected</tspan>
<tspan x="10" y="906">[5967:0404/102511:WARNING:audio_manager.cc(275)] Multiple instances of AudioManager detected</tspan>
<tspan x="10" y="922">[6041:0404/102511:ERROR:sandbox_linux.cc(343)] InitializeSandbox() called with multiple threads \</tspan>
<tspan x="10" y="938">in process gpu-process. </tspan>
<tspan x="10" y="954"></tspan>
<tspan x="10" y="970">browserTest - opened url /home/travis/build/npmdoc/node-npmdoc-plop/tmp/build/apidoc.html</tspan>
<tspan x="10" y="986"></tspan>
<tspan x="10" y="1002"></tspan>
<tspan x="10" y="1018">browserTest - opened url http://127.0.0.1:56480?modeTest=1</tspan>
<tspan x="10" y="1034"></tspan>
<tspan x="10" y="1050">[5967:0404/102513:INFO:CONSOLE(245)] "----------|-----------|-----------|-----------|-----------\</tspan>
<tspan x="10" y="1066">|</tspan>
<tspan x="10" y="1082">File      |   % Stmts |% Branches |   % Funcs |   % Lines |</tspan>
<tspan x="10" y="1098">----------|-----------|-----------|-----------|-----------|</tspan>
<tspan x="10" y="1114">----------|-----------|-----------|-----------|-----------|</tspan>
<tspan x="10" y="1130">All files |       100 |       100 |       100 |       100 |</tspan>
<tspan x="10" y="1146">----------|-----------|-----------|-----------|-----------|</tspan>
<tspan x="10" y="1162">", source: file:///home/travis/build/npmdoc/node-npmdoc-plop/tmp/electron.15b387f2e230.608c5c288\</tspan>
<tspan x="10" y="1178">607a.html (245)</tspan>
<tspan x="10" y="1194">[5967:0404/102513:INFO:CONSOLE(245)] "created coverage file:///tmp/build/coverage.html/index.htm\</tspan>
<tspan x="10" y="1210">l", source: file:///home/travis/build/npmdoc/node-npmdoc-plop/tmp/electron.15b387f2e230.608c5c28\</tspan>
<tspan x="10" y="1226">8607a.html (245)</tspan>
<tspan x="10" y="1242">[node test-case 4 of 6 passed] - testCase_buildApp_default</tspan>
<tspan x="10" y="1258"></tspan>
<tspan x="10" y="1274">browserTest - created screenCapture file:///home/travis/build/npmdoc/node-npmdoc-plop/tmp/build/\</tspan>
<tspan x="10" y="1290">screenCapture.npmTest.browser._2Fhome_2Ftravis_2Fbuild_2Fnpmdoc_2Fnode-npmdoc-plop_2Ftmp_2Fbuild\</tspan>
<tspan x="10" y="1306">_2Fapidoc.html.png</tspan>
<tspan x="10" y="1322"></tspan>
<tspan x="10" y="1338">browserTest - created screenCapture file:///home/travis/build/npmdoc/node-npmdoc-plop/tmp/build/\</tspan>
<tspan x="10" y="1354">screenCapture.npmTest.browser._2Fhome_2Ftravis_2Fbuild_2Fnpmdoc_2Fnode-npmdoc-plop_2Ftmp_2Fbuild\</tspan>
<tspan x="10" y="1370">_2Fapidoc.html.html</tspan>
<tspan x="10" y="1386"></tspan>
<tspan x="10" y="1402">browserTest - exit-code 0 - /home/travis/build/npmdoc/node-npmdoc-plop/tmp/build/apidoc.html</tspan>
<tspan x="10" y="1418"></tspan>
<tspan x="10" y="1434">[node test-case 5 of 6 passed] - testCase_buildApidoc_default</tspan>
<tspan x="10" y="1450"></tspan>
<tspan x="10" y="1466">browserTest - created screenCapture file:///home/travis/build/npmdoc/node-npmdoc-plop/tmp/build/\</tspan>
<tspan x="10" y="1482">screenCapture.npmTest.browser..png</tspan>
<tspan x="10" y="1498"></tspan>
<tspan x="10" y="1514">browserTest - created screenCapture file:///home/travis/build/npmdoc/node-npmdoc-plop/tmp/build/\</tspan>
<tspan x="10" y="1530">screenCapture.npmTest.browser..html</tspan>
<tspan x="10" y="1546"></tspan>
<tspan x="10" y="1562">browserTest - exit-code 0 - http://127.0.0.1:56480?modeTest=1</tspan>
<tspan x="10" y="1578"></tspan>
<tspan x="10" y="1594"></tspan>
<tspan x="10" y="1610">browserTest - merged coverage from /home/travis/build/npmdoc/node-npmdoc-plop/tmp/coverage.npmTe\</tspan>
<tspan x="10" y="1626">st.browser.%2F.json</tspan>
<tspan x="10" y="1642"></tspan>
<tspan x="10" y="1658"></tspan>
<tspan x="10" y="1674">browserTest - merging test-report from /home/travis/build/npmdoc/node-npmdoc-plop/tmp/test-repor\</tspan>
<tspan x="10" y="1690">t.npmTest.browser.%2F.json</tspan>
<tspan x="10" y="1706"></tspan>
<tspan x="10" y="1722">[node test-case 6 of 6 passed] - testCase_webpage_default</tspan>
<tspan x="10" y="1738">-------------------------|-----------|-----------|-----------|-----------|</tspan>
<tspan x="10" y="1754">File                     |   % Stmts |% Branches |   % Funcs |   % Lines |</tspan>
<tspan x="10" y="1770">-------------------------|-----------|-----------|-----------|-----------|</tspan>
<tspan x="10" y="1786">   node-npmdoc-plop/     |       100 |       100 |       100 |       100 |</tspan>
<tspan x="10" y="1802">      example.js         |       100 |       100 |       100 |       100 |</tspan>
<tspan x="10" y="1818">      lib.npmdoc_plop.js |       100 |       100 |       100 |       100 |</tspan>
<tspan x="10" y="1834">      test.js            |       100 |       100 |       100 |       100 |</tspan>
<tspan x="10" y="1850">-------------------------|-----------|-----------|-----------|-----------|</tspan>
<tspan x="10" y="1866">All files                |       100 |       100 |       100 |       100 |</tspan>
<tspan x="10" y="1882">-------------------------|-----------|-----------|-----------|-----------|</tspan>
<tspan x="10" y="1898"></tspan>
<tspan x="10" y="1914">created coverage file:///home/travis/build/npmdoc/node-npmdoc-plop/tmp/build/coverage.html/index\</tspan>
<tspan x="10" y="1930">.html</tspan>
<tspan x="10" y="1946"></tspan>
<tspan x="10" y="1962"></tspan>
<tspan x="10" y="1978">erging file:///home/travis/build/npmdoc/node-npmdoc-plop/tmp/build/test-report.json to test-repo\</tspan>
<tspan x="10" y="1994">rt</tspan>
<tspan x="10" y="2010"></tspan>
<tspan x="10" y="2026">-------------------------------------------------------</tspan>
<tspan x="10" y="2042">| test-report - buildNpmdoc - node - linux v6.10.1 - 2017-04-04T10:24:35.057Z</tspan>
<tspan x="10" y="2058">|   45691 ms            0 failed        6 passed      |</tspan>
<tspan x="10" y="2074">-------------------------------------------------------</tspan>
<tspan x="10" y="2090"></tspan>
<tspan x="10" y="2106">created test-report file:///home/travis/build/npmdoc/node-npmdoc-plop/tmp/build/test-report.html</tspan>
<tspan x="10" y="2122"></tspan>
<tspan x="10" y="2138"></tspan>
<tspan x="10" y="2154">npmTest - 0 failed tests</tspan>
<tspan x="10" y="2170"></tspan>
<tspan x="10" y="2186"></tspan>
<tspan x="10" y="2202">[MODE_BUILD=npmTest] - 2017-04-04T10:25:23Z - EXIT_CODE - 0</tspan>
</text>
</svg>
